<svg id="SvgjsSvg1097" width="288" height="288" xmlns="http://www.w3.org/2000/svg" version="1.1" xmlns:xlink="http://www.w3.org/1999/xlink" xmlns:svgjs="http://svgjs.com/svgjs"><defs id="SvgjsDefs1098"></defs><g id="SvgjsG1099" transform="matrix(1,0,0,1,0,0)"><svg xmlns="http://www.w3.org/2000/svg" enable-background="new 0 0 100 100" viewBox="0 0 100 100" width="288" height="288"><path d="M19 1C12.934 1 8 5.935 8 12c0 5.728 4.402 10.442 10 10.949V41c-.431 0-.813.275-.949.684l-2 6c-.032.095-.043.192-.046.29C15.005 47.983 15 47.991 15 48v47c0 2.206 1.794 4 4 4s4-1.794 4-4V48c0-.01-.005-.017-.005-.027-.003-.097-.014-.195-.046-.29l-2-6C20.812 41.276 20.431 41 20 41V22.949C25.598 22.442 30 17.728 30 12 30 5.935 25.065 1 19 1zM21 49v46c0 1.103-.897 2-2 2s-2-.897-2-2V49H21zM20.613 47h-3.226l1.333-4h.559L20.613 47zM19 21c-4.962 0-9-4.038-9-9s4.038-9 9-9 9 4.038 9 9S23.962 21 19 21zM50.181 1.062c-2.658-.278-5.322.405-7.49 1.926-.452.317-.562.941-.245 1.393.318.452.94.562 1.393.245 1.773-1.244 3.951-1.806 6.134-1.574 4.159.435 7.511 3.765 7.97 7.92.383 3.469-1.2 6.779-4.132 8.637C50.172 21.914 48 25.699 48 29.733V41c-.431 0-.813.275-.949.684l-2 6c-.032.095-.043.192-.046.29C45.005 47.983 45 47.991 45 48v47c0 2.206 1.794 4 4 4s4-1.794 4-4V48c0-.01-.005-.017-.005-.027-.003-.097-.014-.195-.046-.29l-2-6C50.812 41.276 50.431 41 50 41V29.733c0-3.345 1.825-6.498 4.881-8.435 3.583-2.271 5.518-6.311 5.05-10.546C59.37 5.669 55.269 1.594 50.181 1.062zM51 49v46c0 1.103-.897 2-2 2s-2-.897-2-2V49H51zM50.613 47h-3.226l1.333-4h.559L50.613 47zM91.521 13.147l-19.659-12c-.437-.267-1.003-.161-1.314.245-.311.406-.266.981.104 1.333l11.775 11.206L64.617 5.19c-.458-.225-1.013-.067-1.286.364-.273.432-.175 1 .226 1.318l14.426 11.404L80 93.027c.003.126.035.245.08.355L80 95c0 2.206 1.794 4 4 4s4-1.794 3.999-3.951l4-81C92.017 13.684 91.833 13.338 91.521 13.147zM79.969 17.754c-.008-.296-.147-.574-.379-.758l-7.442-5.883 11.757 5.771-2.571 51.43L79.969 17.754zM86 95c0 1.103-.897 2-2 2s-2-.897-2.001-1.95l4-80c.015-.291-.098-.573-.309-.774l-6.872-6.54 11.154 6.809L86 95z" fill="#104099" class="color000 svgShape"></path></svg></g></svg>