<svg id="SvgjsSvg1102" width="288" height="288" xmlns="http://www.w3.org/2000/svg" version="1.1" xmlns:xlink="http://www.w3.org/1999/xlink" xmlns:svgjs="http://svgjs.com/svgjs"><defs id="SvgjsDefs1103"></defs><g id="SvgjsG1104" transform="matrix(1,0,0,1,0,0)"><svg xmlns="http://www.w3.org/2000/svg" enable-background="new 0 0 100 100" viewBox="0 0 100 100" width="288" height="288"><path d="M87 57h-1v-1c0-3.31-2.69-6-6-6h-4.76l1.25-2.51 9.41-4.7C86.58 42.45 87 41.76 87 41s-.42-1.45-1.1-1.79l-9.41-4.7-4.7-9.41C71.45 24.43 70.76 24 70 24c-.75 0-1.45.43-1.79 1.1l-4.7 9.41-9.4 4.7C53.43 39.55 53 40.24 53 41s.43 1.45 1.11 1.79L60.53 46H54c-1.53 0-2.93.58-4 1.54C48.94 46.58 47.54 46 46 46H34c-2.76 0-5.09 1.88-5.78 4.43C27.53 50.15 26.79 50 26 50h-6c-3.3 0-6 2.69-6 6v1h-1c-4.41 0-8 3.59-8 8 0 9.37 7.63 17 17 17h56c9.38 0 17-7.63 17-17C95 60.59 91.41 57 87 57zM80 54c1.11 0 2 .9 2 2v5c0 2.75-2.24 5-5 5-2.75 0-5-2.25-5-5v-4.53l1.14-2.27C73.4 54.08 73.69 54 74 54H80zM59.48 41l6.42-3.21c.38-.2.7-.51.89-.9L70 30.47l3.21 6.42c.2.39.51.7.9.9L80.53 41l-6.42 3.21c-.39.19-.7.51-.9.89L70 51.53l-3.21-6.43c-.19-.38-.51-.7-.89-.89L59.48 41zM52 52c0-1.1.9-2 2-2h10.77L68 56.47V60c0 4.41-3.59 8-8 8s-8-3.59-8-8V52zM32 52c0-1.1.9-2 2-2h12c1.11 0 2 .9 2 2v8c0 4.41-3.59 8-8 8s-8-3.59-8-8V52zM18 56c0-1.1.9-2 2-2h6c1.11 0 2 .9 2 2v5c0 2.75-2.24 5-5 5-2.75 0-5-2.25-5-5V56zM78 78H22c-7.16 0-13-5.83-13-13 0-2.21 1.8-4 4-4h1c0 4.96 4.04 9 9 9 2.83 0 5.36-1.32 7.01-3.37C32.16 69.86 35.84 72 40 72c4.18 0 7.85-2.14 10-5.38C52.16 69.86 55.83 72 60 72s7.84-2.14 9.99-5.37C71.65 68.68 74.17 70 77 70c4.97 0 9-4.04 9-9h1c2.21 0 4 1.79 4 4C91 72.17 85.17 78 78 78zM19.11 31.79l6.07 3.03 3.03 6.07C28.55 41.57 29.25 42 30 42c.76 0 1.45-.43 1.79-1.11l3.04-6.07 6.07-3.03C41.58 31.45 42 30.76 42 30s-.42-1.45-1.1-1.79l-6.07-3.04-3.04-6.07C31.45 18.43 30.76 18 30 18c-.75 0-1.45.43-1.79 1.1l-3.03 6.07-6.07 3.04C18.43 28.55 18 29.24 18 30S18.43 31.45 19.11 31.79zM27.56 28.45c.39-.19.71-.5.9-.89L30 24.47l1.55 3.09c.19.39.51.7.89.89L35.53 30l-3.09 1.54c-.38.2-.7.51-.89.9L30 35.53l-1.54-3.09c-.19-.39-.51-.7-.9-.9L24.48 30 27.56 28.45z" fill="#104099" class="color000 svgShape"></path></svg></g></svg>