<svg id="SvgjsSvg1033" width="288" height="288" xmlns="http://www.w3.org/2000/svg" version="1.1" xmlns:xlink="http://www.w3.org/1999/xlink" xmlns:svgjs="http://svgjs.com/svgjs"><defs id="SvgjsDefs1034"></defs><g id="SvgjsG1035" transform="matrix(1,0,0,1,0,0)"><svg xmlns="http://www.w3.org/2000/svg" data-name="Layer 1" viewBox="0 0 32 32" width="288" height="288"><path d="M28.5,23.27917V20.5A2.50294,2.50294,0,0,0,26,18H24a2.48023,2.48023,0,0,0-1.66028.64508A2.49687,2.49687,0,0,0,20,17H18a2.49052,2.49052,0,0,0-2,1.01544A2.49052,2.49052,0,0,0,14,17H12a2.49687,2.49687,0,0,0-2.33972,1.64508A2.48023,2.48023,0,0,0,8,18H6a2.50294,2.50294,0,0,0-2.5,2.5v2.77917A4.47791,4.47791,0,0,0,.5,27.5v2A2.50294,2.50294,0,0,0,3,32H29a2.50294,2.50294,0,0,0,2.5-2.5v-2A4.47791,4.47791,0,0,0,28.5,23.27917ZM22.5,20.5A1.50164,1.50164,0,0,1,24,19h2a1.50164,1.50164,0,0,1,1.5,1.5l.0022,1.5H26.5v-.5A.49971.49971,0,0,0,26,21H24a.49971.49971,0,0,0-.5.5V22h-1Zm3,1.5v1h-1V22Zm-3,1h1v.5a.49971.49971,0,0,0,.5.5h2a.49971.49971,0,0,0,.5-.5V23h1.00366l.00073.51123a.48929.48929,0,0,0-.01367.09912A2.4917,2.4917,0,0,1,25,26a2.50294,2.50294,0,0,1-2.5-2.5Zm-6-3.5A1.50164,1.50164,0,0,1,18,18h2a1.50164,1.50164,0,0,1,1.5,1.5V22h-1v-.5A.49971.49971,0,0,0,20,21H18a.49971.49971,0,0,0-.5.5V22h-1Zm3,2.5v1h-1V22Zm-3,1h1v.5a.49971.49971,0,0,0,.5.5h2a.49971.49971,0,0,0,.5-.5V23h1v.5a2.5,2.5,0,0,1-5,0Zm-6-3.5A1.50164,1.50164,0,0,1,12,18h2a1.50164,1.50164,0,0,1,1.5,1.5V22h-1v-.5A.49971.49971,0,0,0,14,21H12a.49971.49971,0,0,0-.5.5V22h-1Zm3,2.5v1h-1V22Zm-3,1h1v.5a.49971.49971,0,0,0,.5.5h2a.49971.49971,0,0,0,.5-.5V23h1v.5a2.5,2.5,0,0,1-5,0Zm-6-2.5A1.50164,1.50164,0,0,1,6,19H8a1.50164,1.50164,0,0,1,1.5,1.5V22h-1v-.5A.49971.49971,0,0,0,8,21H6a.49971.49971,0,0,0-.5.5V22h-1Zm3,1.5v1h-1V22Zm-3,1h1v.5A.49971.49971,0,0,0,6,24H8a.49971.49971,0,0,0,.5-.5V23h1v.5a2.49653,2.49653,0,0,1-4.99072.11133A.60476.60476,0,0,0,4.5,23.5Zm26,6.5A1.50164,1.50164,0,0,1,29,31H3a1.50164,1.50164,0,0,1-1.5-1.5v-2a3.48916,3.48916,0,0,1,2.101-3.20166,3.47085,3.47085,0,0,0,6.4.97736A3.47024,3.47024,0,0,0,16,25.274a3.45722,3.45722,0,0,0,6.00092.00171,3.48428,3.48428,0,0,0,6.40015-.97668A3.48933,3.48933,0,0,1,30.5,27.5ZM29,0H3A2.50294,2.50294,0,0,0,.5,2.5v2a4.47791,4.47791,0,0,0,3,4.22083V11.5A2.50294,2.50294,0,0,0,6,14H8a2.48023,2.48023,0,0,0,1.66028-.64508A2.49687,2.49687,0,0,0,12,15h2a2.49052,2.49052,0,0,0,2-1.01544A2.49052,2.49052,0,0,0,18,15h2a2.49687,2.49687,0,0,0,2.33972-1.64508A2.48023,2.48023,0,0,0,24,14h2a2.50294,2.50294,0,0,0,2.5-2.5V8.72083A4.47791,4.47791,0,0,0,31.5,4.5v-2A2.50294,2.50294,0,0,0,29,0ZM9.5,11.5A1.50164,1.50164,0,0,1,8,13H6a1.50164,1.50164,0,0,1-1.5-1.5V10h1v.5A.49971.49971,0,0,0,6,11H8a.49971.49971,0,0,0,.5-.5V10h1ZM6.5,10V9h1v1Zm3-1h-1V8.5A.49971.49971,0,0,0,8,8H6a.49971.49971,0,0,0-.5.5V9h-1V8.5a2.5,2.5,0,0,1,5,0Zm6,3.5A1.50164,1.50164,0,0,1,14,14H12a1.50164,1.50164,0,0,1-1.5-1.5V10h1v.5a.49971.49971,0,0,0,.5.5h2a.49971.49971,0,0,0,.5-.5V10h1Zm-3-2.5V9h1v1Zm3-1h-1V8.5A.49971.49971,0,0,0,14,8H12a.49971.49971,0,0,0-.5.5V9h-1V8.5a2.5,2.5,0,0,1,5,0Zm6,3.5A1.50164,1.50164,0,0,1,20,14H18a1.50164,1.50164,0,0,1-1.5-1.5V10h1v.5a.49971.49971,0,0,0,.5.5h2a.49971.49971,0,0,0,.5-.5V10h1Zm-3-2.5V9h1v1Zm3-1h-1V8.5A.49971.49971,0,0,0,20,8H18a.49971.49971,0,0,0-.5.5V9h-1V8.5a2.5,2.5,0,0,1,5,0Zm6,2.5A1.50164,1.50164,0,0,1,26,13H24a1.50164,1.50164,0,0,1-1.5-1.5V10h1v.5a.49971.49971,0,0,0,.5.5h2a.49971.49971,0,0,0,.5-.5V10h1Zm-3-1.5V9h1v1Zm3-1h-1V8.5A.49971.49971,0,0,0,26,8H24a.49971.49971,0,0,0-.5.5V9h-1V8.5a2.5,2.5,0,0,1,5,0Zm3-4.5a3.48948,3.48948,0,0,1-2.10052,3.20154A3.48146,3.48146,0,0,0,22,6.726a3.47017,3.47017,0,0,0-6,0,3.47017,3.47017,0,0,0-6,0,3.48146,3.48146,0,0,0-6.39948.97552A3.48948,3.48948,0,0,1,1.5,4.5v-2A1.50164,1.50164,0,0,1,3,1H29a1.50164,1.50164,0,0,1,1.5,1.5Z" fill="#104099" class="color000 svgShape"></path></svg></g></svg>