<svg id="SvgjsSvg1038" width="288" height="288" xmlns="http://www.w3.org/2000/svg" version="1.1" xmlns:xlink="http://www.w3.org/1999/xlink" xmlns:svgjs="http://svgjs.com/svgjs"><defs id="SvgjsDefs1039"></defs><g id="SvgjsG1040" transform="matrix(1,0,0,1,0,0)"><svg xmlns="http://www.w3.org/2000/svg" data-name="Layer 2" viewBox="0 0 64 64" width="288" height="288"><path d="M59,19.47a1,1,0,0,0,0-1.42l-2.12-2.12.71-.7a1,1,0,0,0,0-1.42l-9.9-9.9a4.1,4.1,0,0,0-5.66,0L39.16,6.74a4,4,0,0,0,0,5.66l1.42,1.41c-9.94,9.72-1.11,3.35-32.44,22a6,6,0,0,0-2.35,7.78,4,4,0,0,0-.38,4.13A8.25,8.25,0,0,0,16.25,60.18l10.37-8.49a7,7,0,0,1,9.74.82l8.89,10.15,1.5-1.32L37.87,51.19a9,9,0,0,0-12.52-1L15,58.63a6.25,6.25,0,0,1-8.27-9.36,4,4,0,0,0,5.05-.39,6.08,6.08,0,0,0,1.53.22,6,6,0,0,0,3.86-1.42c28.39-23.94,20.71-17,30.5-26.8,1.21,1.11,1.44,1.71,2.12,1.71s.85-.51,1.41-1C53.16,23.45,53.31,24,54,24s.83-.52,2.12-1.7l4.95,4.95,1.42-1.42-5-4.95ZM7.11,45.39a21.1,21.1,0,0,0,2.58,2.47A2,2,0,0,1,7.11,45.39Zm8.76.76a4,4,0,0,1-5.41-.23L8.37,43.83a4,4,0,0,1,.79-6.28C34.68,22.43,33.48,23.28,34.71,22.34L39,26.66ZM46.23,19.47l-5.79,5.78L36.2,21,42,15.23ZM40.58,11a2,2,0,0,1,0-2.83L43.4,5.33a2,2,0,0,1,2.83,0l9.19,9.19-5.65,5.66ZM54,21.59,52.6,20.18l2.82-2.83,1.42,1.41Z" fill="#104099" class="color000 svgShape"></path></svg></g></svg>