<svg id="SvgjsSvg1023" width="288" height="288" xmlns="http://www.w3.org/2000/svg" version="1.1" xmlns:xlink="http://www.w3.org/1999/xlink" xmlns:svgjs="http://svgjs.com/svgjs"><defs id="SvgjsDefs1024"></defs><g id="SvgjsG1025" transform="matrix(1,0,0,1,0,0)"><svg xmlns="http://www.w3.org/2000/svg" data-name="Layer 1" viewBox="0 0 32 32" width="288" height="288"><path d="M31.18359,19.72095a2.50277,2.50277,0,0,0-1.40674-.63654,5.29266,5.29266,0,0,0-.144-.93866,1.17272,1.17272,0,0,0-.77637-.81543h-.001a9.14876,9.14876,0,0,0-5.72852.02539,1.17822,1.17822,0,0,0-.76758.81445,5.19714,5.19714,0,0,0-.12561,1.57849l-.61853.06116c-.42578.03906-.84961.05762-1.27539.05762h-.5835a5.2729,5.2729,0,0,0-.12354-1.72168,1.17272,1.17272,0,0,0-.77637-.81543h-.001a9.14874,9.14874,0,0,0-5.72852.02539,1.17822,1.17822,0,0,0-.76758.81445,5.20421,5.20421,0,0,0-.12207,1.69727h-.57715q-.63867,0-1.27148-.05762l-.62872-.062a5.26533,5.26533,0,0,0-.12714-1.60211,1.17272,1.17272,0,0,0-.77637-.81543h-.001a9.14874,9.14874,0,0,0-5.72852.02539,1.17822,1.17822,0,0,0-.76758.81445,5.22881,5.22881,0,0,0-.14075.91724A2.49456,2.49456,0,0,0,0,21.56763v5.7998a2.50232,2.50232,0,0,0,2.5,2.5h27a2.50232,2.50232,0,0,0,2.5-2.5v-5.7998A2.50431,2.50431,0,0,0,31.18359,19.72095Zm-7.85352-1.30859a.18181.18181,0,0,1,.12793-.1123,8.11112,8.11112,0,0,1,5.08887-.01855.17316.17316,0,0,1,.11523.10645,4.27264,4.27264,0,0,1-.36914,3.0332l-.127.24023-.39941-.87109a1.944,1.944,0,0,0-3.53418,0l-.39844.87109-.14062-.2666A4.2063,4.2063,0,0,1,23.33008,18.41236Zm-10,0a.18181.18181,0,0,1,.12793-.1123,8.11117,8.11117,0,0,1,5.08887-.01855.17316.17316,0,0,1,.11523.10645,4.27264,4.27264,0,0,1-.36914,3.0332l-.127.24023-.39941-.87109a1.944,1.944,0,0,0-3.53418,0l-.39844.87109-.14062-.2666A4.2063,4.2063,0,0,1,13.33008,18.41236Zm-10,0a.18181.18181,0,0,1,.12793-.1123,8.11117,8.11117,0,0,1,5.08887-.01855.17316.17316,0,0,1,.11523.10645,4.27264,4.27264,0,0,1-.36914,3.0332l-.127.24023-.39941-.87109a1.944,1.944,0,0,0-3.53418,0l-.39844.87109-.14062-.2666A4.2063,4.2063,0,0,1,3.33008,18.41236ZM31,27.36743a1.50164,1.50164,0,0,1-1.5,1.5H2.5a1.50164,1.50164,0,0,1-1.5-1.5v-5.7998A1.47857,1.47857,0,0,1,2.252,20.0998a5.19514,5.19514,0,0,0,.55658,1.76178l.21484.40723a.93054.93054,0,0,0,.83984.49121.91815.91815,0,0,0,.81445-.53809L5.1416,21.2063a.97023.97023,0,0,1,1.71582,0l.46582,1.0166a.91637.91637,0,0,0,.81348.53711h.02539a.91548.91548,0,0,0,.81445-.49121l.20117-.38086a5.26456,5.26456,0,0,0,.4267-1.14984l.69049.06781q.68262.06152,1.36523.06152h.75714a5.1852,5.1852,0,0,0,.3913.99414l.21484.40723a.92244.92244,0,0,0,1.6543-.04687l.46387-1.01562a.97023.97023,0,0,1,1.71582,0l.46582,1.0166a.91637.91637,0,0,0,.81348.53711h.02539a.91548.91548,0,0,0,.81445-.49121l.20117-.38086a5.2725,5.2725,0,0,0,.39886-1.02051h.76324c.45508,0,.91016-.02051,1.36914-.06152l.6806-.06708a5.17284,5.17284,0,0,0,.419,1.12274l.21484.40723a.92244.92244,0,0,0,1.6543-.04687l.46387-1.01562a.97023.97023,0,0,1,1.71582,0l.46582,1.0166a.91637.91637,0,0,0,.81348.53711h.02539a.91548.91548,0,0,0,.81445-.49121l.20117-.38086a5.28267,5.28267,0,0,0,.56525-1.79419,1.51109,1.51109,0,0,1,.76678.36743A1.47638,1.47638,0,0,1,31,21.56763Zm-4.86426-17.5a.49971.49971,0,0,0-.5.5v2.79883l-.56055-.56055a.49995.49995,0,0,0-.707.707l1.41406,1.41406a.49982.49982,0,0,0,.707,0l1.415-1.41406a.49995.49995,0,0,0-.707-.707l-.56152.561V10.36743A.49971.49971,0,0,0,26.13574,9.86743Zm-3.6582-2.51855a.5.5,0,0,0,.37012.3291l.56445.11914a12.44014,12.44014,0,0,0,2.58984.27344,12.42554,12.42554,0,0,0,2.60254-.27637l.54785-.11621a.50183.50183,0,0,0,.37012-.3291l.67871-2.00781a2.42917,2.42917,0,0,0-2.98828-3.1084l-.99023.292a.81765.81765,0,0,1-.44434,0l-.99121-.292a2.42917,2.42917,0,0,0-2.98828,3.1084Zm.5918-3.77734a1.4105,1.4105,0,0,1,1.43457-.37988l.78009.22955a1.89129,1.89129,0,0,0-.16193.4433.50043.50043,0,0,0,.37988.59668.5185.5185,0,0,0,.1084.01172.50024.50024,0,0,0,.48828-.3916.91354.91354,0,0,1,.50739-.62744l.89008-.26221a1.42877,1.42877,0,0,1,1.75781,1.8291L28.666,6.759l-.26953.05664a11.38431,11.38431,0,0,1-4.77734.00293L23.334,6.75806l-.58789-1.7373A1.406,1.406,0,0,1,23.06934,3.57154ZM2.47754,7.34888a.5.5,0,0,0,.37012.3291l.56445.11914A12.44014,12.44014,0,0,0,6.002,8.07056a12.42554,12.42554,0,0,0,2.60254-.27637L9.15234,7.678a.50183.50183,0,0,0,.37012-.3291l.67871-2.00781a2.42917,2.42917,0,0,0-2.98828-3.1084l-.99023.292a.81765.81765,0,0,1-.44434,0l-.99121-.292a2.42917,2.42917,0,0,0-2.98828,3.1084Zm.5918-3.77734a1.4105,1.4105,0,0,1,1.43457-.37988l.78009.22955a1.89129,1.89129,0,0,0-.16193.4433.50043.50043,0,0,0,.37988.59668.5185.5185,0,0,0,.1084.01172.50024.50024,0,0,0,.48828-.3916A.91354.91354,0,0,1,6.606,3.45386l.89008-.26221a1.42877,1.42877,0,0,1,1.75781,1.8291L8.666,6.759l-.26953.05664a11.38431,11.38431,0,0,1-4.77734.00293L3.334,6.75806l-.58789-1.7373A1.406,1.406,0,0,1,3.06934,3.57154Zm3.06641,6.2959a.49971.49971,0,0,0-.5.5v2.79883l-.56055-.56055a.49995.49995,0,0,0-.707.707l1.41406,1.41406a.49982.49982,0,0,0,.707,0l1.415-1.41406a.49995.49995,0,0,0-.707-.707l-.56152.561V10.36743A.49971.49971,0,0,0,6.13574,9.86743Zm6.3418-2.51855a.5.5,0,0,0,.37012.3291l.56445.11914a12.44014,12.44014,0,0,0,2.58984.27344,12.42554,12.42554,0,0,0,2.60254-.27637l.54785-.11621a.50183.50183,0,0,0,.37012-.3291l.67871-2.00781a2.42917,2.42917,0,0,0-2.98828-3.1084l-.99023.292a.81765.81765,0,0,1-.44434,0l-.99121-.292a2.42917,2.42917,0,0,0-2.98828,3.1084Zm.5918-3.77734a1.41156,1.41156,0,0,1,1.43457-.37988l.78009.22955a1.89129,1.89129,0,0,0-.16193.4433.50043.50043,0,0,0,.37988.59668.5185.5185,0,0,0,.1084.01172.50024.50024,0,0,0,.48828-.3916.91354.91354,0,0,1,.50739-.62744l.89008-.26221a1.42877,1.42877,0,0,1,1.75781,1.8291L18.666,6.759l-.26953.05664a11.38431,11.38431,0,0,1-4.77734.00293L13.334,6.75806l-.58789-1.7373A1.406,1.406,0,0,1,13.06934,3.57154Zm3.06641,6.2959a.49971.49971,0,0,0-.5.5v2.79883l-.56055-.56055a.49995.49995,0,0,0-.707.707l1.41406,1.41406a.49982.49982,0,0,0,.707,0l1.415-1.41406a.49995.49995,0,0,0-.707-.707l-.56152.561V10.36743A.49971.49971,0,0,0,16.13574,9.86743Z" fill="#104099" class="color000 svgShape"></path></svg></g></svg>