<svg id="SvgjsSvg1088" width="288" height="288" xmlns="http://www.w3.org/2000/svg" version="1.1" xmlns:xlink="http://www.w3.org/1999/xlink" xmlns:svgjs="http://svgjs.com/svgjs"><defs id="SvgjsDefs1089"></defs><g id="SvgjsG1090"><svg xmlns="http://www.w3.org/2000/svg" viewBox="0 0 512 512" width="288" height="288"><g data-name="15-Cavities" fill="#104099" class="color000 svgShape"><path fill="#104099" d="M461,136.55h0c-13.05-37.89-39.87-65.82-73.59-76.63C328.82,41.13,279.93,62.57,258,75.36c-21.92-12.79-70.81-34.22-129.41-15.44C94.86,70.74,68,98.68,55,136.59c-16.88,49.06-8.44,105.56,22.59,151.14,19.09,28,31.55,59.67,36,91.45q.4,2.81.77,5.74C119,420.42,125.76,449,134.58,470c11.46,27.2,26.88,42,45.83,43.85q1.83.18,3.63.18c19.17,0,34.64-15.73,46-46.81,7.69-21,13.74-49,17-78.82,1.65-15,5.37-26.91,10.77-34.53l.11,0a.21.21,0,0,1,.15.06c5.38,7.58,9.1,19.51,10.76,34.49,3.29,29.84,9.34,57.83,17,78.82,11.38,31.06,26.93,46.8,46.19,46.8,1.14,0,2.3-.06,3.47-.17,18.95-1.9,34.37-16.65,45.82-43.85,8.82-20.94,15.61-49.56,20.19-85.06q.36-2.83.75-5.53c4.48-31.83,17-63.56,36.14-91.75C469.47,242.05,477.88,185.57,461,136.55ZM133.48,75.15A138,138,0,0,1,212.4,73.5l-8,32.05-33.83-11.8,12.72,59.17L131.8,125.71l-22.33,46.68L66.38,154.66q1.56-6.51,3.74-12.86C81.5,108.71,104.6,84.42,133.48,75.15ZM425.26,278.64c-20.53,30.21-33.93,64.27-38.75,98.52q-.39,2.8-.77,5.71c-4.39,34.07-10.81,61.28-19.07,80.89-9,21.39-20,32.88-32.67,34.14-.64.06-1.27.1-1.88.1-14.76,0-25.1-19.75-31.17-36.31-7.26-19.81-13-46.47-16.15-75.06-2-17.69-6.66-32.21-13.62-42a16.18,16.18,0,0,0-26.36,0c-7,9.79-11.67,24.32-13.62,42-3.16,28.6-8.89,55.26-16.15,75.06-9.27,25.29-20.39,37.48-33,36.21s-23.66-12.76-32.67-34.15c-8.26-19.61-14.67-46.82-19.07-80.89q-.39-3-.8-5.93c-4.83-34.19-18.19-68.15-38.66-98.21C68.59,246.09,59.08,207.4,63.5,170.78l53.88,22.16L139,147.63l67.13,35.45-13.94-64.83,23.5,8.2,11.9-48a152.8,152.8,0,0,1,26.1,13L258,94.15l4.26-2.68c17.39-10.93,63.92-34.39,120.26-16.33,28.87,9.26,52,33.53,63.35,66.6C461.12,186,453.42,237.21,425.26,278.64Z" class="color282d35 svgShape"></path><rect width="17.64" height="43.32" x="51.94" y="18.81" fill="#104099" transform="rotate(-35.98 60.75 40.46)" class="color282d35 svgShape"></rect><rect width="43.32" height="17.64" x="7.39" y="79.1" fill="#104099" transform="rotate(-1.55 29.124 88.012)" class="color282d35 svgShape"></rect><rect width="43.32" height="17.64" x="93.99" y="15.73" fill="#104099" transform="rotate(-72.78 115.638 24.555)" class="color282d35 svgShape"></rect></g></svg></g></svg>